# xmcd
#
# Track frame offsets: 
#        150
#        10213
#        25478
#        37230
#        53389
#        63345
#        83667
#        96072
#        108503
#        119163
#        129248
#        141707
#
# Disc length: 1994 seconds
#
# Revision: 0
# Processed by: cddbd v1.5.2PL0 Copyright (c) Steve Scherf et al.
# Submitted via: ExactAudioCopy v0.99pb5
#
DISCID=a607c80c
DTITLE=Dave Arcari - Devil's Left Hand
DYEAR=2010
DGENRE=Blues
TTITLE0=Devil's Left Hand
TTITLE1=Can't Be Satisfied
TTITLE2=Devil's Deal
TTITLE3=MacPherson's Lament
TTITLE4=Blue Train
TTITLE5=Trouble in Mind
TTITLE6=Come on in my Kitchen
TTITLE7=Cotton on my Back
TTITLE8=Hangman's Blues
TTITLE9=One Side Blind
TTITLE10=Texicalli Waltz
TTITLE11=Dragonfly
EXTD=
EXTT0=
EXTT1=
EXTT2=
EXTT3=
EXTT4=
EXTT5=
EXTT6=
EXTT7=
EXTT8=
EXTT9=
EXTT10=
EXTT11=
PLAYORDER=
